<?xml version="1.0" standalone="no"?>
<!DOCTYPE svg PUBLIC "-//W3C//DTD SVG 20010904//EN"
 "http://www.w3.org/TR/2001/REC-SVG-20010904/DTD/svg10.dtd">
<svg version="1.0" xmlns="http://www.w3.org/2000/svg"
 width="4800.000000pt" height="4801.000000pt" viewBox="0 0 4800.000000 4801.000000"
 preserveAspectRatio="xMidYMid meet">

<g transform="translate(0.000000,4801.000000) scale(0.100000,-0.100000)"
fill="#000000" stroke="none">
<path d="M23456 43819 c-63 -15 -155 -69 -195 -116 -25 -28 -207 -370 -529
-995 l-491 -953 -162 -790 c-89 -434 -165 -794 -170 -799 -10 -11 -864 -148
-897 -144 -20 3 -85 111 -417 696 -217 381 -402 703 -412 715 -48 61 -1504
1494 -1548 1523 -66 44 -162 68 -240 61 -65 -7 -923 -280 -1011 -323 -64 -30
-138 -108 -170 -178 -20 -43 -57 -253 -194 -1094 -94 -572 -170 -1061 -170
-1085 0 -25 38 -385 85 -801 47 -416 85 -769 85 -784 0 -27 -19 -38 -407 -235
-223 -115 -411 -206 -417 -204 -6 3 -271 242 -589 532 -318 290 -589 536 -602
547 -31 24 -1875 952 -1936 974 -70 25 -193 21 -265 -8 -62 -25 -784 -537
-861 -611 -55 -53 -99 -138 -112 -215 -12 -74 -24 16 173 -1262 l144 -935 336
-740 336 -740 -328 -328 -328 -328 -727 330 c-401 182 -745 335 -765 341 -20
6 -498 81 -1062 166 -1146 174 -1119 172 -1234 115 -36 -18 -83 -51 -105 -74
-60 -62 -576 -773 -608 -836 -31 -63 -43 -191 -24 -265 15 -61 955 -1921 996
-1971 25 -31 932 -1028 1051 -1156 l24 -25 -206 -405 c-113 -222 -209 -407
-213 -411 -4 -4 -371 33 -816 83 l-809 91 -1049 -172 c-576 -94 -1067 -178
-1090 -186 -116 -40 -204 -140 -251 -281 -13 -43 -82 -253 -153 -468 -120
-367 -127 -395 -128 -470 0 -94 20 -161 69 -229 18 -26 368 -383 778 -794
l746 -747 703 -399 c387 -220 705 -400 707 -402 5 -3 -141 -923 -148 -935 -4
-5 -357 -81 -786 -169 -428 -88 -791 -164 -806 -170 -49 -16 -1882 -962 -1925
-992 -47 -34 -94 -95 -126 -165 -22 -47 -22 -56 -25 -572 -3 -503 -2 -527 17
-590 22 -71 74 -147 131 -192 41 -31 1888 -981 1940 -997 19 -6 382 -82 805
-168 424 -87 772 -159 774 -161 4 -3 150 -904 151 -929 0 -6 -316 -190 -702
-409 l-703 -398 -763 -766 c-722 -725 -764 -770 -800 -840 -35 -71 -37 -80
-36 -165 1 -89 4 -100 153 -556 112 -340 161 -479 186 -516 39 -61 104 -116
167 -144 51 -22 2089 -360 2174 -360 27 0 390 38 807 85 417 47 770 85 785 85
26 0 38 -22 235 -410 l207 -409 -550 -602 -550 -602 -479 -951 c-264 -523
-485 -969 -491 -992 -20 -67 -9 -199 21 -264 26 -55 554 -787 611 -847 45 -47
135 -91 214 -104 67 -11 106 -5 1114 150 575 89 1061 166 1080 173 19 6 358
157 754 335 395 178 722 323 726 321 4 -2 154 -147 334 -324 l328 -320 -327
-720 c-180 -395 -334 -739 -341 -764 -11 -35 -279 -1750 -323 -2063 -18 -124
13 -234 91 -321 34 -40 783 -592 848 -626 76 -40 193 -50 279 -24 29 8 479
230 999 491 l945 476 561 510 c309 280 579 527 602 549 l41 39 414 -211 415
-211 -83 -732 c-45 -403 -85 -775 -89 -827 -5 -90 4 -150 160 -1105 91 -555
170 -1030 176 -1054 23 -94 94 -189 176 -237 23 -14 254 -94 513 -179 434
-143 476 -155 544 -155 80 0 149 19 212 58 22 14 379 361 794 771 737 730 754
748 811 845 l58 98 101 -198 c577 -1138 1415 -2175 2471 -3057 314 -262 790
-604 1040 -747 l92 -53 32 18 c71 41 265 171 389 261 571 417 1207 1008 1714
1594 546 631 1020 1331 1406 2078 l104 203 83 -145 83 -146 766 -758 c867
-856 814 -812 976 -820 l90 -4 473 156 c261 85 493 166 516 180 82 48 153 143
176 237 6 24 85 499 176 1054 156 955 165 1015 160 1105 -4 52 -44 424 -89
827 l-83 731 415 212 414 211 41 -39 c23 -22 293 -269 602 -549 l561 -510 945
-476 c520 -261 970 -483 999 -491 86 -26 203 -16 279 24 65 34 814 586 848
626 78 87 109 197 91 321 -44 313 -312 2028 -323 2063 -7 25 -161 369 -341
765 l-327 720 328 322 c181 177 332 322 336 323 5 0 331 -146 725 -324 395
-178 734 -328 753 -334 19 -7 505 -84 1080 -173 1008 -155 1047 -161 1114
-150 79 13 169 57 214 104 57 60 585 792 611 847 30 65 41 197 21 264 -6 23
-227 469 -491 992 l-479 950 -550 603 -550 602 207 409 c197 388 209 410 235
410 15 0 368 -38 785 -85 417 -47 780 -85 807 -85 85 0 2123 338 2174 360 63
28 128 83 167 144 25 37 74 175 187 521 151 463 153 471 152 557 0 79 -3 93
-37 160 -34 69 -83 119 -799 839 l-763 766 -702 398 c-387 218 -703 402 -703
409 1 25 147 926 151 929 2 2 351 74 774 161 424 86 786 162 805 168 52 16
1899 966 1940 997 57 45 109 121 131 192 19 63 20 87 17 590 -3 516 -3 525
-25 572 -32 70 -79 131 -126 165 -43 30 -1876 976 -1925 992 -15 6 -378 82
-806 170 -429 88 -782 164 -786 169 -7 12 -153 932 -148 935 2 2 319 182 706
402 l703 399 740 741 c407 407 757 764 779 792 54 72 75 140 74 237 0 75 -9
106 -127 465 -69 212 -137 422 -152 467 -45 145 -134 246 -252 287 -23 8 -514
92 -1090 186 l-1049 172 -809 -91 c-445 -50 -812 -87 -816 -83 -4 4 -100 189
-213 411 -205 401 -206 405 -187 425 431 471 1031 1131 1056 1161 36 45 966
1880 991 1957 25 75 16 209 -19 279 -31 63 -548 774 -608 836 -22 23 -69 56
-105 74 -115 57 -88 59 -1234 -115 -564 -85 -1042 -160 -1062 -166 -20 -6
-364 -159 -765 -341 l-727 -330 -328 328 -328 328 336 740 336 740 144 935
c197 1278 185 1188 173 1262 -13 77 -57 162 -112 215 -77 74 -799 586 -861
611 -72 29 -195 33 -265 8 -61 -22 -1905 -950 -1936 -974 -13 -11 -284 -257
-602 -547 -318 -290 -583 -529 -589 -532 -6 -2 -195 90 -420 205 -377 193
-409 211 -407 233 2 13 41 365 88 782 47 417 85 779 85 803 0 25 -76 514 -170
1086 -137 842 -174 1051 -194 1094 -32 70 -106 148 -170 178 -88 43 -946 316
-1011 323 -78 7 -174 -17 -240 -61 -43 -29 -1499 -1461 -1548 -1523 -10 -12
-195 -334 -412 -715 -331 -583 -397 -693 -417 -696 -33 -4 -887 133 -897 144
-5 5 -81 365 -170 799 l-162 790 -476 925 c-262 509 -489 946 -505 972 -40 63
-88 104 -168 142 l-65 31 -525 2 c-297 1 -542 -3 -564 -8z m1460 -1286 l467
-908 174 -840 c151 -732 173 -848 168 -902 -5 -59 -4 -63 17 -68 29 -6 1483
-235 1496 -235 6 0 15 24 22 53 9 37 137 272 438 802 l425 750 720 715 c396
393 726 716 732 718 12 3 842 -262 852 -272 2 -2 78 -456 168 -1008 l164
-1003 -96 -855 c-84 -758 -98 -861 -119 -909 -13 -30 -23 -55 -22 -56 12 -10
1367 -695 1374 -695 5 0 20 20 33 45 18 34 182 189 661 627 l638 582 908 458
c500 252 915 456 922 453 22 -8 722 -516 722 -523 0 -4 -69 -459 -154 -1010
l-155 -1003 -357 -787 c-294 -650 -363 -794 -395 -827 l-39 -40 548 -548 548
-548 24 27 c14 14 43 36 65 49 22 13 384 180 805 370 l765 347 1009 154 c555
84 1010 153 1011 151 1 -1 118 -161 260 -356 142 -195 258 -359 259 -365 0 -6
-204 -418 -454 -914 l-455 -904 -586 -641 c-424 -465 -598 -649 -630 -666 -24
-13 -46 -25 -47 -27 -3 -2 684 -1360 695 -1373 2 -3 27 5 56 18 44 19 176 36
912 119 l860 96 1006 -164 1006 -164 137 -421 c75 -231 136 -424 136 -428 0
-5 -321 -332 -712 -728 l-713 -719 -757 -430 c-416 -237 -781 -439 -810 -449
-29 -10 -52 -23 -52 -27 1 -5 55 -348 120 -761 l118 -753 49 0 c27 0 434 -79
905 -176 l856 -176 908 -466 908 -467 -3 -448 -2 -449 -905 -465 -905 -466
-820 -169 c-451 -93 -858 -173 -905 -176 l-85 -7 -117 -735 c-65 -404 -117
-748 -115 -764 2 -26 8 -31 54 -47 29 -10 388 -208 798 -441 l746 -423 720
-723 c395 -398 719 -728 719 -734 0 -11 -269 -840 -274 -846 -2 -1 -455 -77
-1007 -167 l-1004 -164 -855 95 c-760 84 -861 97 -910 119 -30 13 -58 21 -62
17 -7 -7 -698 -1360 -698 -1367 0 -2 22 -16 49 -32 38 -21 194 -186 630 -663
l581 -635 460 -913 461 -912 -263 -360 c-153 -211 -269 -360 -278 -360 -9 0
-464 69 -1011 154 l-996 154 -784 353 c-601 272 -794 363 -828 392 l-44 39
-544 -544 c-298 -298 -543 -546 -543 -549 0 -3 16 -24 35 -47 26 -29 138 -266
391 -824 l356 -783 154 -1000 c87 -560 151 -1006 147 -1013 -4 -7 -168 -129
-363 -271 l-355 -257 -910 457 -910 458 -636 578 c-482 438 -644 591 -668 631
l-33 53 -426 -217 c-235 -119 -545 -277 -689 -351 l-262 -134 24 -57 c21 -50
36 -164 119 -910 l95 -853 -160 -977 c-87 -537 -162 -989 -165 -1004 -5 -27
-20 -33 -431 -168 l-426 -139 -536 529 c-295 291 -622 616 -728 722 l-192 193
-136 239 c-74 131 -135 241 -135 244 0 3 36 97 80 210 93 236 218 600 281 819
24 84 46 153 49 153 4 0 150 -383 325 -851 176 -468 322 -852 326 -854 11 -8
413 408 502 519 202 255 347 486 507 811 125 254 203 443 295 716 303 905 456
1984 459 3260 l1 416 173 103 c98 58 176 99 181 94 4 -5 147 -232 316 -504
169 -272 313 -501 320 -508 9 -10 35 50 117 265 58 153 125 337 148 408 91
288 168 631 215 965 24 176 27 186 53 205 58 43 364 294 492 404 485 418 1003
936 1421 1421 1848 2148 2958 4822 3173 7645 42 540 47 1400 12 1895 -71 997
-227 1892 -491 2812 -926 3219 -3062 5991 -5954 7727 -2068 1242 -4420 1891
-6851 1891 -2885 0 -5644 -912 -7955 -2630 -770 -572 -1536 -1287 -2165 -2020
-1808 -2109 -2903 -4701 -3149 -7450 -41 -464 -46 -583 -46 -1205 0 -621 5
-744 46 -1205 252 -2826 1410 -5497 3304 -7626 495 -557 1051 -1086 1615
-1537 96 -77 176 -141 177 -141 1 -1 14 -85 28 -186 47 -335 124 -678 215
-965 23 -71 90 -255 148 -408 82 -215 108 -275 117 -265 7 7 151 236 320 508
169 272 312 499 316 504 5 5 83 -36 181 -94 l173 -103 1 -416 c3 -1276 156
-2355 459 -3260 92 -273 170 -462 295 -716 160 -325 305 -556 507 -811 89
-111 491 -527 502 -519 4 2 146 375 316 829 l310 826 47 -186 c79 -311 200
-689 307 -958 l32 -79 -103 -186 -103 -186 -170 -173 c-93 -96 -425 -425 -736
-733 l-566 -558 -426 139 c-411 135 -426 141 -431 168 -3 15 -78 467 -165
1004 l-160 978 95 852 c83 747 98 860 119 910 l24 57 -262 134 c-144 74 -454
232 -689 351 l-426 217 -33 -53 c-24 -40 -186 -193 -668 -631 l-636 -578 -910
-458 -910 -457 -355 257 c-195 142 -359 264 -363 271 -4 7 60 453 147 1013
l154 1000 356 783 c253 558 365 795 391 824 19 23 35 44 35 47 0 3 -245 251
-543 549 l-544 544 -44 -39 c-34 -29 -225 -120 -829 -392 l-783 -353 -996
-154 c-547 -85 -1002 -154 -1011 -154 -9 0 -125 149 -278 360 l-263 360 461
912 460 913 580 635 c402 439 594 643 625 661 25 14 48 28 50 31 5 5 -678
1354 -695 1371 -4 5 -31 -3 -61 -17 -50 -24 -122 -33 -909 -121 l-855 -94
-1004 164 c-552 90 -1005 166 -1007 168 -6 6 -274 833 -274 846 0 6 324 336
720 734 l719 722 746 423 c410 233 769 431 798 441 46 16 52 21 54 47 2 16
-50 360 -115 764 l-117 735 -85 7 c-47 3 -454 83 -905 176 l-820 169 -905 466
-905 465 -2 449 -3 448 908 467 907 466 856 176 c471 97 878 176 905 176 l50
0 118 753 c65 413 119 756 120 761 0 4 -23 17 -52 27 -29 10 -394 212 -810
448 l-757 431 -712 719 c-392 396 -713 723 -713 728 0 4 61 197 136 428 l136
421 1007 164 1006 164 861 -96 c735 -82 867 -99 902 -117 23 -12 47 -21 54
-21 12 1 715 1368 706 1374 -1 2 -23 14 -47 27 -32 17 -204 199 -630 666
l-586 642 -455 903 c-250 496 -454 908 -454 914 1 6 117 170 259 365 142 195
259 355 260 356 1 2 456 -67 1011 -151 l1009 -154 765 -347 c421 -190 783
-357 805 -370 22 -13 51 -35 65 -49 l24 -27 548 548 548 548 -39 40 c-32 33
-101 177 -395 827 l-357 787 -155 1003 c-85 551 -154 1006 -154 1010 0 7 700
515 722 523 7 3 422 -201 922 -453 l908 -458 638 -582 c479 -438 643 -593 661
-627 13 -25 28 -45 33 -45 7 0 1363 686 1374 695 2 1 -8 27 -22 56 -23 49 -33
129 -120 909 l-95 855 164 1003 c90 552 166 1006 168 1008 3 3 193 66 422 140
289 94 423 133 435 127 10 -4 339 -327 732 -718 l715 -710 425 -750 c299 -527
429 -766 438 -802 6 -29 16 -53 22 -53 13 0 1467 229 1496 235 22 5 23 9 17
63 -6 49 17 172 168 902 l174 845 467 908 468 907 448 0 448 0 468 -907z
m-546 -6393 c2288 -76 4422 -752 6305 -1994 991 -654 1876 -1443 2634 -2349
848 -1013 1542 -2188 2014 -3407 836 -2164 1033 -4544 566 -6827 -466 -2280
-1578 -4368 -3219 -6047 -169 -173 -469 -460 -474 -455 -2 2 -11 87 -21 189
-53 587 -157 1213 -310 1865 -271 1159 -725 2470 -1246 3603 l-89 193 0 132 0
132 88 17 c209 41 451 150 633 287 126 95 290 263 381 391 139 195 257 466
312 712 46 207 47 255 43 1228 -3 807 -6 925 -20 1000 -94 472 -292 836 -610
1118 -225 200 -474 320 -799 387 l-27 5 -4 1168 c-4 1263 -3 1246 -63 1662
-340 2372 -1956 4366 -4216 5201 -1415 523 -3042 528 -4457 14 -1058 -384
-1997 -1028 -2727 -1870 -821 -947 -1351 -2107 -1528 -3345 -60 -416 -59 -399
-63 -1662 l-4 -1168 -27 -5 c-325 -67 -574 -187 -799 -387 -318 -282 -516
-646 -610 -1118 -14 -75 -17 -193 -20 -1000 -4 -973 -3 -1021 43 -1228 55
-246 173 -517 312 -712 91 -128 255 -296 381 -391 182 -137 424 -246 633 -287
l88 -17 0 -132 0 -132 -89 -193 c-214 -465 -428 -987 -613 -1498 -514 -1417
-834 -2763 -943 -3970 -10 -102 -19 -187 -21 -189 -5 -5 -305 282 -474 455
-1641 1679 -2753 3767 -3219 6047 -415 2026 -308 4122 311 6097 469 1496 1250
2920 2269 4137 333 398 801 886 1159 1207 1397 1256 3019 2161 4790 2671 1196
345 2492 506 3730 465z m90 -1851 c1025 -77 2017 -414 2875 -976 1518 -996
2513 -2610 2715 -4403 35 -314 40 -509 40 -1551 l0 -1019 -268 0 -269 0 -134
44 c-837 276 -1818 363 -2929 260 -487 -45 -1010 -131 -1464 -241 -181 -44
-191 -45 -215 -29 -57 37 -161 85 -244 115 -366 129 -788 101 -1244 -83 l-133
-54 -158 43 c-204 55 -489 116 -744 159 -1308 222 -2591 162 -3699 -173 l-135
-41 -272 0 -272 0 0 1019 c0 1042 5 1237 40 1551 202 1793 1197 3407 2715
4403 825 541 1780 876 2763 968 310 29 716 32 1032 8z m-3090 -8068 c511 -45
930 -107 1326 -200 272 -63 254 -56 244 -94 -5 -17 -165 -698 -355 -1512 -191
-814 -352 -1485 -359 -1492 -6 -7 -83 -32 -171 -57 -870 -244 -1712 -277
-2436 -96 -122 31 -395 122 -409 137 -10 10 -483 3031 -477 3047 5 12 246 79
457 125 332 73 719 126 1110 151 174 11 908 5 1070 -9z m6630 -5 c363 -35 632
-79 925 -151 264 -66 345 -93 345 -114 0 -19 -469 -3024 -473 -3027 -1 -1 -63
-16 -137 -33 -684 -155 -1507 -171 -2390 -45 -149 21 -494 85 -502 93 -8 7
-708 2979 -708 3004 0 9 43 23 138 45 527 122 1117 207 1687 242 215 13 921 4
1115 -14z m-3640 -125 c105 -31 219 -87 230 -114 5 -12 188 -782 406 -1712
217 -929 397 -1691 398 -1692 6 -6 206 -56 331 -82 502 -106 1003 -160 1562
-168 743 -11 1247 55 1853 240 24 8 48 20 52 28 4 8 121 736 258 1619 138 883
253 1622 257 1643 l6 37 188 0 189 0 0 -2474 0 -2474 -193 -184 c-425 -404
-838 -761 -1194 -1030 -8 -6 -50 24 -131 94 -668 579 -1528 1057 -2462 1369
-129 43 -307 97 -395 119 l-160 42 -777 -389 -778 -388 -777 388 -778 389
-160 -42 c-88 -22 -266 -76 -395 -119 -934 -312 -1794 -790 -2462 -1369 -81
-70 -123 -100 -131 -94 -356 269 -769 626 -1194 1030 l-193 184 0 2474 0 2474
189 0 188 0 6 -37 c4 -21 119 -760 257 -1643 138 -883 254 -1608 258 -1611 18
-17 278 -125 410 -170 684 -235 1458 -281 2307 -138 347 58 876 201 1042 282
l47 22 378 1610 c207 886 385 1642 393 1682 l17 72 86 36 c105 44 258 89 367
110 123 22 406 14 505 -14z m-6890 -2345 l0 -2125 -72 20 c-501 139 -875 619
-938 1205 -8 78 -10 355 -8 974 4 850 5 867 26 963 50 220 116 379 226 547
126 192 301 349 500 445 90 44 217 90 259 94 4 1 7 -955 7 -2123z m13190 2087
c244 -80 482 -268 636 -503 110 -168 176 -327 226 -547 21 -96 22 -113 26
-963 2 -618 0 -896 -8 -975 -62 -581 -440 -1066 -938 -1204 l-72 -20 0 2125 0
2124 28 -6 c15 -3 61 -17 102 -31z m-7460 -5353 l800 -400 803 401 802 402
115 -33 c167 -48 440 -142 630 -217 1039 -413 1926 -1025 2520 -1740 l51 -62
-367 -184 -368 -184 -1238 412 c-1435 479 -1549 511 -2059 579 -334 45 -443
51 -889 51 -446 0 -555 -6 -889 -51 -510 -68 -624 -100 -2059 -579 l-1238
-412 -368 184 -367 184 51 62 c181 217 429 464 671 665 564 471 1318 891 2099
1169 156 55 464 152 488 153 6 0 372 -180 812 -400z m-5247 -189 c321 -299
668 -599 935 -806 l101 -79 -27 -32 c-15 -17 -68 -78 -117 -135 -188 -216
-441 -562 -422 -577 26 -21 1338 -672 1355 -672 9 0 226 70 481 155 l463 154
67 -33 c263 -133 670 -301 980 -407 568 -193 1074 -302 1671 -361 184 -18 936
-18 1120 0 597 59 1103 168 1671 361 306 104 723 277 979 406 l68 34 463 -154
c255 -85 472 -155 481 -155 17 0 1329 651 1355 672 19 15 -234 361 -422 577
-49 57 -102 118 -117 135 l-27 32 101 79 c267 208 614 507 936 807 106 99 195
178 198 176 9 -9 118 -259 219 -498 201 -481 367 -924 535 -1430 629 -1890
880 -3596 729 -4955 -32 -290 -101 -670 -153 -845 l-13 -45 -19 31 c-322 524
-1610 2571 -1612 2562 -1 -8 36 -255 82 -550 125 -791 153 -1034 198 -1733 18
-273 18 -1434 0 -1685 -77 -1107 -234 -1893 -523 -2631 -149 -380 -398 -827
-591 -1062 l-23 -28 -464 1238 c-255 681 -466 1241 -470 1246 -4 4 -29 -109
-55 -250 -147 -788 -222 -1117 -350 -1528 -298 -960 -775 -1900 -1399 -2757
-609 -837 -1421 -1653 -2206 -2219 l-135 -97 -150 100 c-660 442 -1387 1102
-1942 1763 -839 1000 -1431 2137 -1723 3310 -91 365 -137 643 -216 1290 -31
253 -59 468 -63 477 -5 11 -180 -446 -492 -1278 l-485 -1295 -23 28 c-120 146
-291 421 -410 659 -396 791 -613 1728 -704 3034 -18 252 -18 1413 0 1685 45
702 72 939 197 1731 47 296 84 544 83 552 -2 9 -979 -1544 -1612 -2562 l-19
-31 -9 30 c-26 88 -82 351 -108 500 -101 600 -118 1289 -49 2040 125 1364 560
3000 1229 4620 99 240 250 585 257 585 2 0 91 -80 196 -179z m6387 -1231 c436
-25 865 -93 1225 -195 66 -19 341 -108 610 -198 l490 -165 -50 -22 c-129 -57
-400 -159 -600 -226 -480 -159 -950 -258 -1475 -311 -246 -24 -834 -24 -1080
0 -531 53 -999 152 -1490 316 -217 73 -605 222 -622 239 -11 11 1032 355 1217
401 548 137 1178 194 1775 161z"/>
<path d="M23492 33604 c-518 -43 -994 -155 -1339 -314 -101 -47 -126 -79 -120
-153 6 -65 46 -107 108 -114 36 -4 61 3 144 40 314 140 701 229 1205 279 85 8
274 13 510 13 236 0 425 -5 510 -13 504 -50 891 -139 1205 -279 83 -37 108
-44 144 -40 62 7 102 49 108 114 6 74 -19 106 -120 153 -352 162 -825 272
-1360 315 -234 19 -765 18 -995 -1z"/>
<path d="M22103 32805 c-18 -8 -42 -29 -53 -47 -19 -31 -20 -50 -20 -278 0
-672 78 -2125 136 -2520 89 -608 321 -1171 690 -1667 62 -84 770 -905 1036
-1201 66 -74 146 -75 211 -4 36 38 839 957 933 1067 28 33 90 113 137 178 348
477 575 1036 661 1627 58 395 136 1847 136 2521 0 239 -1 247 -23 280 -44 66
-139 76 -194 20 -19 -20 -137 -278 -373 -819 l-344 -789 -350 799 c-377 862
-363 835 -444 845 -51 6 -102 -23 -127 -73 -19 -37 -20 -62 -23 -589 -8 -1157
63 -2107 223 -3010 46 -259 121 -598 145 -652 49 -112 212 -95 243 27 4 14
-12 102 -38 215 -139 603 -236 1336 -285 2165 -17 291 -31 789 -28 986 l3 191
199 -456 c391 -893 376 -861 410 -882 40 -24 102 -24 142 0 37 22 12 -29 329
696 142 325 260 592 263 595 15 15 -41 -1075 -84 -1625 -49 -640 -139 -995
-369 -1450 -103 -206 -183 -336 -305 -500 -82 -111 -926 -1085 -940 -1085 -14
0 -858 974 -940 1085 -122 164 -202 294 -305 500 -183 362 -296 735 -339 1120
-54 475 -125 1825 -126 2378 l0 109 343 -5 c387 -4 407 -7 562 -82 363 -176
534 -597 395 -977 -94 -257 -323 -453 -588 -504 -41 -8 -96 -14 -124 -14 -102
0 -165 -60 -155 -148 4 -36 12 -53 39 -78 l35 -31 194 -6 c134 -4 212 -11 253
-22 188 -52 316 -176 373 -360 15 -50 18 -91 17 -240 -3 -424 -108 -908 -323
-1487 -23 -64 -20 -101 12 -142 43 -53 121 -62 182 -22 57 37 229 559 306 926
89 427 112 827 61 1022 -27 100 -82 211 -140 284 -60 73 -164 161 -231 194
-28 14 -51 28 -51 31 0 4 18 19 40 34 56 39 179 170 230 245 60 89 117 215
147 328 24 86 27 116 26 262 0 136 -3 178 -20 240 -36 132 -81 234 -145 331
-170 258 -436 426 -742 468 -45 6 -241 11 -464 11 -310 -1 -393 -4 -419 -15z"/>
<path d="M20575 25706 c-355 -71 -604 -339 -646 -698 -7 -61 -9 -291 -7 -668
4 -555 5 -578 26 -654 78 -280 282 -488 558 -568 66 -19 102 -23 214 -22 124
0 143 3 230 32 119 39 203 89 292 171 128 119 209 261 243 426 14 70 15 162
13 715 l-3 635 -32 93 c-88 260 -285 449 -544 522 -96 27 -251 34 -344 16z
m301 -277 c168 -52 307 -204 349 -381 22 -94 22 -1193 0 -1287 -63 -267 -324
-444 -592 -403 -204 32 -376 186 -429 387 -11 39 -14 182 -14 661 0 530 2 618
16 665 43 147 138 261 276 328 128 63 254 73 394 30z"/>
<path d="M27369 25707 c-14 -7 -153 -126 -307 -266 -295 -265 -311 -285 -297
-351 15 -68 85 -116 151 -104 27 5 73 40 187 143 84 75 160 142 170 150 16 13
17 -37 17 -958 l0 -971 -216 0 c-200 0 -219 -2 -249 -20 -88 -54 -81 -180 12
-225 28 -14 102 -15 597 -13 l565 3 30 29 c59 57 59 135 0 192 l-30 29 -225 3
-224 3 0 1132 c0 1078 -1 1134 -18 1166 -32 60 -104 85 -163 58z"/>
</g>
</svg>
